<?xml version="1.0" encoding="UTF-8"?><svg id="Layer_1" xmlns="http://www.w3.org/2000/svg" viewBox="0 0 200 200"><path d="M183.44,90c-3.21-26.86-19.21-50.77-43.37-63.89l-8.79-4.77-9.55,17.57,8.79,4.77c20.68,11.23,33.52,32.81,33.52,56.32,0,35.31-28.73,64.04-64.04,64.04s-64.04-28.73-64.04-64.04c0-23.51,12.85-45.09,33.52-56.32l8.79-4.77-9.55-17.57-8.79,4.77c-24.16,13.13-40.16,37.03-43.37,63.89h-.61v10c0,46.34,37.7,84.04,84.04,84.04s84.04-37.7,84.04-84.04v-10h-.61Z" style="fill:#fff;"/><rect x="90" y="9.56" width="20" height="74.45" style="fill:#fff;"/></svg>